<?xml version="1.0" standalone="no"?><!DOCTYPE svg PUBLIC "-//W3C//DTD SVG 1.1//EN" "http://www.w3.org/Graphics/SVG/1.1/DTD/svg11.dtd"><svg t="1743220526186" class="icon" viewBox="0 0 1024 1024" version="1.1" xmlns="http://www.w3.org/2000/svg" p-id="7935" xmlns:xlink="http://www.w3.org/1999/xlink" width="200" height="200"><path d="M853.333333 170.666667a73.142857 73.142857 0 0 1 73.142857 73.142857v536.380952a73.142857 73.142857 0 0 1-73.142857 73.142857H170.666667a73.142857 73.142857 0 0 1-73.142857-73.142857V243.809524a73.142857 73.142857 0 0 1 73.142857-73.142857h682.666666z m-375.856762 223.963428L184.393143 687.713524l68.949333 68.973714 224.109714-224.158476 120.685715 120.685714 51.712-51.712 120.685714 120.685714 68.973714-68.949333-189.635047-189.635047-51.736381 51.687619-120.685715-120.661334zM731.428571 280.380952a60.952381 60.952381 0 1 0 0 121.904762 60.952381 60.952381 0 0 0 0-121.904762z" p-id="7936"></path></svg>