<?xml version="1.0" standalone="no"?><!DOCTYPE svg PUBLIC "-//W3C//DTD SVG 1.1//EN" "http://www.w3.org/Graphics/SVG/1.1/DTD/svg11.dtd"><svg t="1743222117259" class="icon" viewBox="0 0 1024 1024" version="1.1" xmlns="http://www.w3.org/2000/svg" p-id="7019" xmlns:xlink="http://www.w3.org/1999/xlink" width="200" height="200"><path d="M834.792727 181.992727h-79.592727l-6.981818-23.272727a122.414545 122.414545 0 0 0-116.363637-85.410909H391.912727a122.181818 122.181818 0 0 0-116.363636 85.410909l-7.214546 23.272727H188.741818A142.196364 142.196364 0 0 0 46.545455 324.189091v484.538182a142.196364 142.196364 0 0 0 142.196363 141.963636h646.050909a142.429091 142.429091 0 0 0 142.661818-141.963636V324.189091a142.661818 142.661818 0 0 0-142.661818-142.196364zM572.741818 738.443636a186.181818 186.181818 0 0 1-83.083636 9.541819 183.621818 183.621818 0 0 1-160.116364-153.367273 186.181818 186.181818 0 0 1 1.163637-63.534546l-34.676364 17.221819a26.065455 26.065455 0 1 1-23.272727-46.545455l93.090909-46.545455a26.298182 26.298182 0 0 1 34.909091 11.869091l46.545454 94.254546a26.298182 26.298182 0 0 1-11.869091 35.141818 25.832727 25.832727 0 0 1-11.636363 2.792727 26.298182 26.298182 0 0 1-23.272728-14.661818l-20.014545-40.727273a137.309091 137.309091 0 0 0 0 37.934546 131.956364 131.956364 0 0 0 114.734545 114.501818 130.56 130.56 0 0 0 58.88-6.516364 26.298182 26.298182 0 0 1 18.618182 49.105455z m162.909091-82.850909l-101.934545 25.367273a28.858182 28.858182 0 0 1-6.283637 0 26.763636 26.763636 0 0 1-13.498182-3.723636 27.461818 27.461818 0 0 1-12.101818-16.290909l-25.134545-101.934546a26.298182 26.298182 0 0 1 51.665454-11.869091l11.170909 45.381818a134.749091 134.749091 0 0 0 2.094546-42.356363A131.025455 131.025455 0 0 0 467.316364 442.181818a26.298182 26.298182 0 0 1-18.618182-49.105454 186.181818 186.181818 0 0 1 83.083636-9.541819 183.156364 183.156364 0 0 1 155.927273 229.934546l35.374545-8.378182a26.065455 26.065455 0 1 1 12.567273 50.734546z" fill="#333333" p-id="7020"></path></svg>